<?xml version="1.0" encoding="UTF-8" standalone="no"?>
<!-- Created with Inkscape (http://www.inkscape.org/) -->

<svg
   xmlns:dc="http://purl.org/dc/elements/1.1/"
   xmlns:cc="http://creativecommons.org/ns#"
   xmlns:rdf="http://www.w3.org/1999/02/22-rdf-syntax-ns#"
   xmlns:svg="http://www.w3.org/2000/svg"
   xmlns="http://www.w3.org/2000/svg"
   xmlns:sodipodi="http://sodipodi.sourceforge.net/DTD/sodipodi-0.dtd"
   xmlns:inkscape="http://www.inkscape.org/namespaces/inkscape"
   width="110.36904mm"
   height="110.36904mm"
   viewBox="0 0 110.36904 110.36904"
   version="1.1"
   id="svg8"
   inkscape:version="0.92.2 (5c3e80d, 2017-08-06)"
   sodipodi:docname="logo.svg">
  <defs
     id="defs2" />
  <sodipodi:namedview
     id="base"
     pagecolor="#ffffff"
     bordercolor="#666666"
     borderopacity="1.0"
     inkscape:pageopacity="0.0"
     inkscape:pageshadow="2"
     inkscape:zoom="0.7"
     inkscape:cx="192.61471"
     inkscape:cy="184.98608"
     inkscape:document-units="mm"
     inkscape:current-layer="layer1"
     showgrid="false"
     showguides="true"
     inkscape:window-width="960"
     inkscape:window-height="600"
     inkscape:window-x="0"
     inkscape:window-y="23"
     inkscape:window-maximized="0"
     inkscape:measure-start="392.568,599.856"
     inkscape:measure-end="567.143,602.857"
     fit-margin-top="0"
     fit-margin-left="0"
     fit-margin-right="0"
     fit-margin-bottom="0" />
  <metadata
     id="metadata5">
    <rdf:RDF>
      <cc:Work
         rdf:about="">
        <dc:format>image/svg+xml</dc:format>
        <dc:type
           rdf:resource="http://purl.org/dc/dcmitype/StillImage" />
        <dc:title></dc:title>
      </cc:Work>
    </rdf:RDF>
  </metadata>
  <g
     inkscape:label="Layer 1"
     inkscape:groupmode="layer"
     id="layer1"
     transform="translate(-48.380962,-87.6012)">
    <circle
       style="fill:#0c141d;fill-opacity:1;stroke-width:0.26458332"
       id="path10"
       cx="103.56548"
       cy="142.78572"
       r="55.184521" />
    <circle
       style="fill:#3a7764;fill-opacity:1;stroke-width:0.26458332"
       id="path14-7"
       cx="126.01725"
       cy="135.98213"
       r="20.032738" />
    <path
       style="fill:#0c141d;fill-opacity:1;stroke-width:0.16777612"
       d="m 126.66352,125.19671 a 11.025288,11.025288 0 0 0 -11.02505,11.02538 11.025288,11.025288 0 0 0 0.27526,2.38524 11.025288,11.025288 0 0 1 10.74979,-8.61721 11.025288,11.025288 0 0 1 10.75013,8.63949 11.025288,11.025288 0 0 0 0.27526,-2.40752 11.025288,11.025288 0 0 0 -11.02539,-11.02538 z"
       id="path4529"
       inkscape:connector-curvature="0" />
    <path
       style="fill:#0c141d;fill-opacity:1;stroke-width:0.16777612"
       d="m 81.62893,125.05106 a 11.025288,11.025288 0 0 0 -11.02505,11.02538 11.025288,11.025288 0 0 0 0.27526,2.38524 11.025288,11.025288 0 0 1 10.74979,-8.61721 11.025288,11.025288 0 0 1 10.75013,8.63949 11.025288,11.025288 0 0 0 0.27526,-2.40752 11.025288,11.025288 0 0 0 -11.02539,-11.02538 z"
       id="path4529-2"
       inkscape:connector-curvature="0" />
    <circle
       style="fill:#3a7764;fill-opacity:1;stroke-width:0.26458332"
       id="path14-7-9"
       cx="81.511841"
       cy="135.83649"
       r="20.032738" />
    <path
       style="fill:#0c141d;fill-opacity:1;stroke-width:0.16777612"
       d="m 81.099763,125.05106 a 11.025288,11.025288 0 0 0 -11.02505,11.02538 11.025288,11.025288 0 0 0 0.27526,2.38524 11.025288,11.025288 0 0 1 10.74979,-8.61721 11.025288,11.025288 0 0 1 10.75013,8.63949 11.025288,11.025288 0 0 0 0.27526,-2.40752 11.025288,11.025288 0 0 0 -11.02539,-11.02538 z"
       id="path4529-6"
       inkscape:connector-curvature="0" />
  </g>
  <g
     inkscape:groupmode="layer"
     id="layer2"
     inkscape:label="Layer 2"
     transform="translate(-48.380962,-87.6012)">
    <a
       id="a6162"
       transform="translate(0.75595243,0.37797619)">
      <path
         transform="matrix(0.2767074,0,0,0.40532927,87.004291,53.714926)"
         inkscape:transform-center-y="-2.7763132e-06"
         d="M 58.208333,274.39865 24.869205,241.05953 58.208331,207.7204 91.547459,241.05952 Z"
         inkscape:randomized="0"
         inkscape:rounded="0"
         inkscape:flatsided="true"
         sodipodi:arg2="2.3561945"
         sodipodi:arg1="1.5707963"
         sodipodi:r2="23.574324"
         sodipodi:r1="33.339127"
         sodipodi:cy="241.05952"
         sodipodi:cx="58.208332"
         sodipodi:sides="4"
         id="path4527"
         style="fill:#f4a409;fill-opacity:1;stroke-width:0.26458332"
         sodipodi:type="star" />
    </a>
  </g>
</svg>
