<?xml version="1.0" encoding="UTF-8"?>
<svg width="424px" height="352px" viewBox="0 0 424 352" version="1.1" xmlns="http://www.w3.org/2000/svg" xmlns:xlink="http://www.w3.org/1999/xlink">
    <!-- Generator: Sketch 47.1 (45422) - http://www.bohemiancoding.com/sketch -->
    <title>logo-dark</title>
    <desc>Created with Sketch.</desc>
    <defs></defs>
    <g id="Page-1" stroke="none" stroke-width="1" fill="none" fill-rule="evenodd">
        <g id="logos" transform="translate(-23.000000, -209.000000)">
            <g id="logo-dark" transform="translate(23.000000, 208.000000)">
                <g id="logo" transform="translate(0.000000, 292.000000)">
                    <path d="M190.92,59 L212.52,2.52 L232.84,2.52 L253.96,59 L234.76,59 L232.28,51.16 L212.6,51.16 L210.12,59 L190.92,59 Z M228.6,38.52 L222.6,18.6 L216.44,38.52 L228.6,38.52 Z M257.88,59 L257.88,2.44 L290.2,2.44 C296.36,2.68 301.72,3 306.28,7.72 C310.44,12.12 311,17.32 311,20.92 C311,25.64 310.04,30.76 305.64,35.32 C300.92,40.2 295.72,40.44 289.56,40.6 L275.8,40.6 L275.8,59 L257.88,59 Z M285.88,14.36 L275.8,14.36 L275.8,28.76 L286.04,28.76 C287,28.68 288.04,28.68 289,28.36 C291.72,27.48 293.32,24.92 293.32,21.48 C293.32,14.84 288.12,14.52 285.88,14.36 Z M314.52,59 L314.52,2.44 L346.84,2.44 C353,2.68 358.36,3 362.92,7.72 C367.08,12.12 367.64,17.32 367.64,20.92 C367.64,25.64 366.68,30.76 362.28,35.32 C357.56,40.2 352.36,40.44 346.2,40.6 L332.44,40.6 L332.44,59 L314.52,59 Z M342.52,14.36 L332.44,14.36 L332.44,28.76 L342.68,28.76 C343.64,28.68 344.68,28.68 345.64,28.36 C348.36,27.48 349.96,24.92 349.96,21.48 C349.96,14.84 344.76,14.52 342.52,14.36 Z M368.2,48.28 C370.76,51.4 374.92,56.44 383.88,59 C388.28,60.28 392.76,60.68 397,60.68 C400.12,60.68 411.48,60.68 418.6,53.4 C421.16,50.76 423.64,46.6 423.64,40.68 C423.64,26.68 411.16,24.44 398.6,22.28 C393.72,21.4 390.84,20.68 390.84,17.96 C390.84,15.08 394.2,14.28 397.24,14.28 C400.12,14.28 404.44,14.76 407.72,16.36 C410.2,17.64 411.16,18.92 412.04,20.04 L423.24,10.68 C421.24,8.6 419.16,6.36 414.92,4.28 C410.28,1.96 404.36,0.68 397.88,0.68 C387.72,0.68 378.2,3.96 374.52,12.28 C373.48,14.52 372.92,17.08 372.92,19.56 C372.92,31.48 383.08,34.68 388.28,36.04 C390.6,36.6 401,38.44 403,39.16 C406.12,40.2 406.12,42.28 406.12,42.68 C406.12,46.76 399.08,46.92 397.64,46.92 C394.92,46.92 392.04,46.44 389.72,45.64 C384.84,44.04 383.48,41.96 381.88,39.48 L368.2,48.28 Z" id="apps" fill="#626366"></path>
                    <path d="M0.52,59 L0.52,2.44 L28.68,2.44 C34.04,2.44 39.16,2.76 42.6,4.2 C50.12,7.4 52.36,15.08 52.36,20.52 C52.36,22.68 52.12,27.72 48.04,31.88 C45.8,34.28 43.4,35.16 40.76,36.2 L54.52,59 L34.68,59 L23.72,39.08 L18.44,39.08 L18.44,59 L0.52,59 Z M25.8,14.28 L18.44,14.28 L18.44,27.48 L25.88,27.48 C28.84,27.48 34.52,27.32 34.52,20.92 C34.52,14.44 28.92,14.28 25.8,14.28 Z M57.16,59 L75.08,59 L75.08,2.52 L57.16,2.52 L57.16,59 Z M122.36,37.08 C121.72,39 119.24,46.36 110.92,46.36 C102.12,46.36 99,38.44 99,30.04 C99,27.8 99,21.4 103.24,17.32 C104.44,16.12 106.92,14.28 110.84,14.28 C118.36,14.28 121.08,20.28 122.52,23.64 L137.48,16.2 C136.28,13.96 135.16,12.04 132.76,9.56 C126.84,3.48 118.68,0.44 110.12,0.44 C91,0.44 80.84,15.88 80.84,31.08 C80.84,45.56 89.96,60.76 110.12,60.76 C118.2,60.76 126.28,58.12 132.04,52.44 C134.76,49.72 136.12,47.16 137.56,44.44 L122.36,37.08 Z M142.12,59 L189.24,59 L189.24,46.76 L160.04,46.76 L160.04,35.56 L185.08,35.56 L185.08,23.32 L160.04,23.32 L160.04,14.92 L186.84,14.92 L186.84,2.52 L142.12,2.52 L142.12,59 Z" id="rice" fill="#414042"></path>
                </g>
                <g id="logo" transform="translate(93.000000, 0.000000)">
                    <polygon id="Rectangle-3" fill="#414042" points="76.3164063 134.482422 155.29541 153.541992 176.471191 233.048828 20.9384766 190.204102"></polygon>
                    <polygon id="Rectangle-2" fill="#414042" points="134.321289 76.0527344 190.049805 20.4707031 232.787109 176.292969 176.249023 233.137695"></polygon>
                    <polygon id="Rectangle" fill="#6D6E71" points="111.806641 0.974609375 190.072266 20.3398437 20.9902344 190.287109 0.3984375 113.083984"></polygon>
                    <polygon id="Triangle" fill="#6D6E71" points="155.068359 153.519043 176.486816 233.112793 98.1176758 211.458984"></polygon>
                </g>
            </g>
        </g>
    </g>
</svg>